<?xml version="1.0" encoding="UTF-8"?><svg id="Layer_2" xmlns="http://www.w3.org/2000/svg" viewBox="0 0 213.77 190.5"><g id="Layer_1-2"><path d="M209.71,63.01c.44-18.67-5-37.08-11.91-54.56-1.86-4.71-5.54-9.81-11.37-8.12-5.59,1.61-8.88,8.81-9.1,14.16-.36,8.8-.72,17.59-1.08,26.39-2.76-6.77-5.98-13.36-9.61-19.68-5.61-9.75-16.19-3.57-18.34,5.24-.14,.56-.26,1.12-.39,1.68-.83-.21-1.69-.27-2.58-.17-4.98,.6-8.71,5.57-9.79,10.25-.48,2.09-.93,4.18-1.36,6.28-3.53-5.46-7.32-10.76-11.35-15.94-3.04-3.91-8.81-2.72-11.9,.17-4.36,4.08-5.42,10.11-5.22,15.85,.09,2.61,.22,5.22,.38,7.82-2.85-3.52-5.71-7.03-8.59-10.52-5.01-6.06-12.1-.53-15.01,4.25-5.74,9.42-6.08,20.83-3.21,31.29-9.98-4.04-20.05-7.87-30.21-11.46-4.24-1.5-7.74-.38-10.68,3.05-6.32,7.41-7.5,18.27-4.04,27.27-7.41-.07-14.83,.14-22.25,.64-13.7,.92-16.06,23.37-5.47,29.99,11.9,7.43,24.68,11.37,37.91,13.51-3.77,1.59-7.47,3.46-11.06,5.7-8.15,5.08-9.59,23.93,.08,28.35,32.09,14.68,67.77,19.38,102.58,13.72,17.08-2.78,34.53-7.88,47.29-20.14,12.81-12.31,19.1-30.58,24.46-47.09,6.17-19,8.6-39.13,1.84-57.94Z"/></g></svg>