<?xml version="1.0" encoding="UTF-8"?><svg id="Layer_2" xmlns="http://www.w3.org/2000/svg" viewBox="0 0 200.04 142.96"><g id="Layer_1-2"><path d="M199.93,85.27c-.92-18.13-7.48-37.43-15.25-53.76-4.49-9.43-12.13-15.77-22.72-16.72-8.46-.76-17.21-.34-25.69-.22-.8,.01-1.6,.03-2.41,.05-2.1-.88-4.07-1.91-6.07-3.03-.13-.07-.22-.12-.33-.17-.11-.15-.25-.33-.44-.56-.89-1.07-2-2.12-3-3.09-2.87-2.78-5.97-5.12-9.73-6.43-8.5-2.95-18.21-.28-26.94,.78-14.65,1.79-29.46,2.58-42.55,10.08-14.02,8.02-22.64,26.23-20.76,42.63-.37,.74-.72,1.49-1.05,2.25-5.58,.83-10.58,2.98-14.78,8.26C-.7,76.52-1.85,92.01,2.33,105.6c-.32,8.37,2.76,23.6,13.78,23.72,.7,0,1.41,.03,2.1,.06,11.35,8.81,25.39,10.03,39.83,8.68,12.28,2.89,24.03,3.55,36.82,1.94,10.09-1.27,19.88-4.07,29.5-7.33,4.45,.17,8.94,0,13.44-.43,5.26,4.08,9.83,8.26,16.78,10,7.44,1.86,14.66-.09,21.26-3.59,19-10.1,25.11-33.37,24.09-53.38Z"/></g></svg>