<?xml version="1.0" encoding="UTF-8"?><svg id="Layer_2" xmlns="http://www.w3.org/2000/svg" viewBox="0 0 166.95 203.29"><g id="Layer_1-2"><path d="M143.72,110.27c-3.74-2.65-7.82-4.59-11.81-6.81-.62-.35-1.25-.74-1.89-1.1,.14-.77,.27-1.54,.38-2.32,.49-3.52,.44-7.09,.34-10.63-.18-6.29-1.59-12.71-3.93-18.55-4.72-11.78-12.51-21.86-23.65-28.23-4.5-2.57-9.7-4.17-14.79-5.02-6.11-1.02-10.02-.36-14.56-2.71-.16-.12-.31-.25-.41-.39-.35-.43-2.21-2.74-1.71-1.89-1.01-1.55-1.94-3.16-2.84-4.79-2.81-5.09-5.42-9.99-9.01-14.6C52.57,3.94,39.54-3.39,27.78,1.63,13.76,7.6,8.87,24.27,5.95,37.96c-2.48,11.64-3.71,23.27-3.64,35.08-2.94,11.8-2.9,24.65-.9,35.69,4.2,23.21,14.88,45.02,32.76,60.76,1.84,1.62,3.89,2.62,5.98,3.03,1.99,3.26,4.39,6.24,7.24,8.79,6.81,6.1,14.87,9.6,23.39,12.01,6.19,3.57,12.7,6.65,19.52,9.15,5.23,1.92,9.93,.26,13.41-3.1,6.04,.72,12.1,1.29,18.16,1.76,13.58,1.05,26.3-.63,35.05-12.27,17.98-23.9,10.7-61.63-13.2-78.59Z"/></g></svg>