<?xml version="1.0" encoding="UTF-8"?><svg id="Layer_2" xmlns="http://www.w3.org/2000/svg" viewBox="0 0 143.87 184.8"><g id="Layer_1-2"><path d="M142.97,76.16c-1.94-6.21-7.84-10.91-14.05-6.79-8.62,5.71-17.51,11.34-27.02,15.43-3,1.12-6.06,2.08-9.19,2.91,7.71-3.85,14.97-8.82,20.84-14.89,4.61-4.76,7.58-11.35,8.07-17.97,.61-8.24-2.85-19.02-12.29-20.34-6.4-.9-11.97,3.86-16.84,7.26-5.82,4.07-11.65,8.14-17.47,12.21-3.7,2.58-7.69,5.11-11.56,7.83,.27-.63,.54-1.26,.83-1.9,4.28-9.64,8.56-19.29,12.83-28.93,2.56-5.77,3.28-13.11-.03-18.8-2.86-4.92-7.75-6.24-12.66-3.53-5.82,3.21-11.03,7.22-15.62,11.81,1.41-5.04,1.39-10.66-1.29-15.26-2.46-4.23-8.32-7.22-12.66-3.53C14.69,18.78,3.53,43.47,.69,69.53c-2.82,25.92,3.26,51.54,13.13,75.35,.95,6.84,4.58,13.15,9.32,18.53,9.55,10.83,23.32,17,37.25,19.78,18.66,3.72,38.12,.24,56.61-2.89,7.24-1.23,9.69-12.37,9.07-18.28-.3-2.87-1.23-5.71-2.77-7.9-.1-1.28-.32-2.56-.66-3.78,.48-.3,.97-.6,1.44-.93,11.56-8.29,14.21-25.15,8.1-37.37-1.96-3.91-5.81-5.68-9.99-4.86-.03,0-.07,.01-.1,.02,5.36-3.02,10.46-6.46,15.22-10.29,5.92-4.77,7.88-13.58,5.65-20.72Z"/></g></svg>