<?xml version="1.0" encoding="UTF-8"?><svg id="Layer_2" xmlns="http://www.w3.org/2000/svg" viewBox="0 0 257.94 228.02"><g id="Layer_1-2"><path d="M251.39,69.38c-11.7-7.79-24.96-13.88-38.81-15.87-2.49-5.58-7.32-9.76-14.23-10.65-.47-.06-.94-.11-1.41-.16,1.1-5.28,.95-11.42-2.55-15.79-2.66-3.32-7.88-5.66-11.69-2.24-4.85,4.36-9.45,8.9-13.8,13.64-.43-6.84-1.82-13.58-5.18-19,.28-5.85-4.13-19.14-12.23-15.11-3.24,1.61-5.85,3.59-8.05,5.86-4.76,.8-9.4,3.08-13.07,6.39-2.45,2.21-4.43,4.66-6.03,7.3-2.79-3.8-5.78-7.58-9.55-10.67-6.85-5.63-14.34-10-22.84-12.58-10.57-3.21-15.47,9.06-14.72,17.79,.24,2.8,.52,5.59,.83,8.38-2.53,1.19-5.02,2.53-7.5,3.9-1.67-1.11-3.72-1.42-6.22-.39-7.92,3.28-15.83,6.57-23.75,9.85-2.4,1-4.28,2.59-5.69,4.54-3-.18-5.98,.38-8.95,2.34-7.67,5.05-9.65,16.3-8.33,24.66,1.93,12.2,10.03,22.03,20.03,28.74,.15,.1,.31,.19,.46,.29-17.45,3.47-32.39,13.74-37.43,32.24-1.7,6.23-.67,19.97,8.54,20.38,4.6,.21,9.19,.31,13.78,.35-6.64,11.15-5.48,26.15,4.32,36.05,9.28,9.36,22.79,11.93,35.42,10.31,5.63-.72,11.01-2.46,16.19-4.76-.78,5.28-1.4,10.58-1.8,15.9-.56,7.25,2.94,17.9,12.14,16.02,4.64-.95,8.4-3.33,11.52-6.56,.03,.03,.06,.06,.09,.08,11.23,9.38,29.19,9.37,42.01,2.59,3.67-1.02,7.3-2.23,10.87-3.61,2.45,2.25,5.66,3.2,9.1,1.49,3.51-1.74,5.69-5.24,6.85-8.98,7-3.91,13.64-8.46,19.73-13.56,.16-.13,.3-.27,.45-.4,14.08,1.49,27.28-6.71,34.61-19.33,1.15-1.99,2.14-4.08,2.95-6.25,3.17,.5,6.36,.92,9.57,1.24,6.68,.68,10.62-7.04,11.6-12.43,1.16-6.36-.17-13.97-6.13-17.55-3.36-2.02-6.72-4.04-10.09-6.05,3.12-5.92,3.11-14.64,.17-19.45-2.85-4.66-5.7-9.32-8.54-13.98,8.27-1.67,16.53-3.42,24.77-5.29,5.61-1.27,8.81-9.1,9.1-14.16,.34-6.06-1.25-12.03-6.5-15.52Z"/></g></svg>