<?xml version="1.0" encoding="UTF-8"?><svg id="Layer_2" xmlns="http://www.w3.org/2000/svg" viewBox="0 0 154.28 156.64"><g id="Layer_1-2"><path d="M154.17,104.04c-.7-12.89-5.16-26.13-10.44-37.81-2.55-5.64-5.79-10.83-9.7-15.45-1.43-6.14-3.14-12.21-5.21-18.15-3.94-11.33-8.91-23.24-20.1-29.17C99.16-1.61,88.26,.04,78.05,1.28c-10.09,1.23-20.66,2.35-31.7,1.18-6.43-.68-13.13-1.68-19.37,.71-6.08,2.33-11.22,6.65-14.84,12.02C4.13,27.09-1.01,43.29,.17,57.7c.61,7.45,3.5,13.97,8.35,19.13,2.58,5.93,5.95,11.51,9.98,16.51,6.72,8.34,15.73,14.61,25.41,19.27,4.11,9.89,10.4,18.9,18.33,25.86,13.21,11.6,30.72,19.26,48.55,18.05,10.89-.74,21.26-3.65,29.39-11.29,11.38-10.7,14.83-26.02,14-41.18Z"/></g></svg>