<?xml version="1.0" encoding="UTF-8"?><svg id="Layer_2" xmlns="http://www.w3.org/2000/svg" viewBox="0 0 194.27 143.04"><g id="Layer_1-2"><path d="M190.52,35.44c-3-6.49-8.3-11.12-14.52-13.11-.75-1.23-1.72-2.33-2.98-3.18-4.4-2.98-8.34-1.28-11.88,2.17-.79,.77-1.61,1.52-2.44,2.26-4.47,1.95-8.26,4.65-11.47,7.9-.28,.05-.56,.1-.84,.14-.71,.12-1.42,.24-2.12,.36-.12-6.35-2.05-12.62-6.15-17.48-5.41-6.42-14.43-8.93-22.23-5.54-5.77,2.5-9.69,7.22-12.92,12.39-.13-.01-.26-.02-.39-.04-.06-.21-.11-.42-.18-.63-2.17-7.1-6.82-13.32-13.78-16.28C78.24-.04,64.61-.97,53.59,.94c-6.45,1.12-11.74,4.15-15.83,8.38-.17-.13-.35-.26-.54-.38-.84-1.45-1.83-2.8-3.04-4C29.21,.02,22.02-.8,15.81,2.01,.71,8.84-.8,28.09,.27,42.51c1.05,14.23,5.25,28.09,9.62,41.6,4.02,12.42,8.53,25.44,19.04,33.93,2.86,2.31,5.93,4.25,9.17,5.88,12.72,12.24,29.41,19.73,47.67,19.09,13.08-.45,25.62-3.99,37.99-7.99,10.92-3.53,21.65-7.35,31.86-12.64,20.81-10.77,36.09-30.14,38.02-54,.23-2.84,.25-5.71,.07-8.55,1.25-8.15,.48-16.45-3.19-24.38Z"/></g></svg>