<?xml version="1.0" encoding="UTF-8"?><svg id="Layer_2" xmlns="http://www.w3.org/2000/svg" viewBox="0 0 167.79 124.67"><g id="Layer_1-2"><path d="M167.55,39.65c-2.46-22.72-26.08-35.19-46.93-28.17-2.6,.88-5.12,2.14-7.54,3.45-1.36-1.24-2.75-2.43-4.22-3.56C101.23,5.53,92.61,1.29,82.91,.23c-16.94-1.84-32.58,7.3-41.12,21.39-4.26,4.11-7.28,9.6-8.99,15.59-1.38,1-2.73,2.02-4.19,2.93-1.54,.96-3.14,1.84-4.76,2.68-.02-.02-2.73,1.27-3.2,1.49-4.92,2.23-9.6,4.15-13.39,8.14-10.43,10.99-8.74,28.82-.53,40.49,5.45,7.74,12.62,13.45,20.83,18.13,18.07,10.29,40.05,18.79,60.35,9.83,9.79-4.32,18.68-10.39,27.71-16.07l28.72-18.04c3.97-2.49,6.57-7,7.9-11.98,.21-.18,.42-.37,.64-.55,10.36-9.07,16.21-20.47,14.68-34.61Z"/></g></svg>