<?xml version="1.0" encoding="UTF-8"?><svg id="Layer_2" xmlns="http://www.w3.org/2000/svg" viewBox="0 0 145.83 153.49"><g id="Layer_1-2"><path d="M143.51,41.63c-1.01-4.83-4.77-9.86-9.55-11.75-.24-.71-.47-1.41-.74-2.12-2.53-6.7-8.44-14.91-16.88-12.05-1.71,.58-3.42,1.16-5.14,1.74-1.13-10.21-10.85-22.98-21.88-14.87-1.58,1.16-3.17,2.25-4.88,3.21-.99,.43-1.99,.82-3.01,1.17-1.6,.55-3.23,1-4.88,1.36-.32,.07-5.03,.58-2.43,.43-5.74,.31-10.29,.26-15.39,3.21-3.37,1.95-6.23,4.79-8.58,7.88-.72,.94-1.39,1.93-2.04,2.93-9.45-6.38-20.46-1.16-25.96,9.42-4.1,7.89-5.98,16.89-5.95,25.97-7.26,3.19-12.27,11.37-14.58,19.39-6.35,22.05,6.72,44.72,24.06,57.53,17.55,12.96,39.18,16.51,60.45,18.38,7.95,.7,13.54-6.37,16.14-13.75,10.93-5.67,20.6-13.9,27.22-23.39,15.47-22.16,19.48-48.5,14.01-74.68Zm-38.8,8.81s.03,.08,.04,.11c0,.21-.1,.75-.4,1.78-.12-.87,.24-1.88,.36-1.89Z"/></g></svg>