<?xml version="1.0" encoding="UTF-8"?>
<svg width="373px" height="398px" viewBox="0 0 373 398" version="1.1" xmlns="http://www.w3.org/2000/svg" xmlns:xlink="http://www.w3.org/1999/xlink">
    <!-- Generator: Sketch 53.2 (72643) - https://sketchapp.com -->
    <title>Group 2</title>
    <desc>Created with Sketch.</desc>
    <defs>
        <polygon id="path-1" points="0 0 373 0 373 398 0 398"></polygon>
        <text id="text-3" font-family="Banglarelli-Regular, Banglarelli" font-size="46" font-style="italic" font-weight="normal" line-spacing="70" fill="#000000">
            <tspan x="108.985646" y="296.705962">Work</tspan>
        </text>
        <filter x="-3.7%" y="-5.9%" width="105.2%" height="109.8%" filterUnits="objectBoundingBox" id="filter-4">
            <feGaussianBlur stdDeviation="1.5" in="SourceAlpha" result="shadowBlurInner1"></feGaussianBlur>
            <feOffset dx="0" dy="1" in="shadowBlurInner1" result="shadowOffsetInner1"></feOffset>
            <feComposite in="shadowOffsetInner1" in2="SourceAlpha" operator="arithmetic" k2="-1" k3="1" result="shadowInnerInner1"></feComposite>
            <feColorMatrix values="0 0 0 0 1   0 0 0 0 1   0 0 0 0 1  0 0 0 0.5 0" type="matrix" in="shadowInnerInner1"></feColorMatrix>
        </filter>
        <filter x="-3.7%" y="-5.9%" width="105.2%" height="109.8%" filterUnits="objectBoundingBox" id="filter-5">
            <feGaussianBlur stdDeviation="1.5" in="SourceAlpha" result="shadowBlurInner1"></feGaussianBlur>
            <feOffset dx="0" dy="1" in="shadowBlurInner1" result="shadowOffsetInner1"></feOffset>
            <feComposite in="shadowOffsetInner1" in2="SourceAlpha" operator="arithmetic" k2="-1" k3="1" result="shadowInnerInner1"></feComposite>
            <feColorMatrix values="0 0 0 0 1   0 0 0 0 1   0 0 0 0 1  0 0 0 0.5 0" type="matrix" in="shadowInnerInner1"></feColorMatrix>
        </filter>
    </defs>
    <g id="nika-fisher" stroke="none" stroke-width="1" fill="none" fill-rule="evenodd">
        <g id="nikafisher.com" transform="translate(-90.000000, -44.000000)">
            <g id="Group-2" transform="translate(90.000000, 44.000000)">
                <g id="Page-1-Copy">
                    <mask id="mask-2" fill="white">
                        <use xlink:href="#path-1"></use>
                    </mask>
                    <g id="Clip-2"></g>
                    <path d="M341.149122,77.9907584 C341.306479,75.8914693 341.610631,73.8061187 342.062043,71.7593312 C343.525637,65.1226043 346.376555,58.2441222 344.266289,51.7827102 C342.692871,46.9644895 338.639171,43.4236525 334.662986,40.2673624 C326.756439,33.9913322 318.457354,28.2271537 310.205335,22.410009 C301.668427,16.3918405 293.113034,10.275638 283.629652,5.88672231 C269.413122,-0.692702065 252.29286,-2.98774926 238.360755,5.50635684 C226.579458,12.6890074 219.314302,25.3169552 213.632661,37.4612379 C213.33814,38.0904825 213.047658,38.7212759 212.759972,39.353618 C199.264522,69.0112837 203.280008,102.593404 219.793675,130.198397 C227.827599,143.628581 239.380704,155.04667 251.691081,164.624415 C263.389893,173.725929 276.151062,181.549129 286.883982,191.841454 C294.545872,199.188888 301.579729,208.62477 307.337486,217.526499 C313.55582,227.140484 316.966109,238.938783 317.201912,250.360433 C317.309561,255.577449 315.430904,260.0994 309.680293,260.959559 C301.678524,262.156409 292.686166,255.438994 286.582471,251.035675 C279.78597,246.132429 273.572918,240.494317 267.225498,235.041741 C246.249437,217.022546 226.676389,197.268476 204.649622,180.488257 C177.454451,159.770573 146.734351,142.80234 113.780336,133.216232 C99.390605,129.030353 84.5597138,126.549305 69.6971337,124.757591 C61.2998745,123.745348 52.4985813,122.17092 44.0354589,122.264463 C34.9599942,122.36451 26.1285655,124.949168 17.494416,127.4917 C13.2984271,128.727269 8.41320381,128.853799 4.44276569,131.047095 C-1.33549555,134.239161 -0.786686554,140.204828 2.17964703,145.381112 C4.77503357,149.910032 8.19992479,153.650344 9.82289574,158.738507 C11.2560437,163.231342 12.0091221,168.354041 11.8901332,173.070665 C11.6849318,181.200048 8.86135381,189.159072 8.18221627,197.298831 C7.97328672,199.8028 7.76342514,202.14338 8.2842733,204.642393 C9.02337129,208.187722 10.2586187,212.458315 11.9702876,215.620335 C14.8306807,220.904721 19.1596388,225.459969 22.8683325,230.122079 C26.2324866,234.350702 28.8292712,238.376133 30.9530517,243.321814 C33.6672718,249.641828 35.4721435,256.213044 37.6709522,262.697067 C38.3982445,264.841269 39.5224253,266.803187 40.206689,268.95761 C40.7137121,270.554495 41.0166211,272.194433 41.4153736,273.821053 C42.4284878,277.954121 43.6387258,282.049089 45.0018163,286.080096 C47.3980596,293.167036 50.0378728,300.046757 53.7940999,306.544254 C59.3056458,316.078015 65.5356298,325.392633 72.050193,334.279339 C77.1432585,341.226894 83.3232237,347.279135 89.1887849,353.566471 C93.9109033,358.62815 99.298645,363.175655 105.021295,367.102433 C107.359753,368.707216 109.908693,369.902053 112.484352,371.068393 C114.003557,371.756179 115.507384,372.177741 116.971599,373.006925 C120.368374,374.930589 123.598317,377.141076 127.011091,379.048634 C132.128856,381.909274 137.452287,383.392017 143.040415,384.976822 C149.925459,386.929602 156.798853,388.600515 163.763896,390.231936 C170.265411,391.754792 175.981382,394.817385 182.258433,396.886164 C183.688164,397.357284 185.103292,397.578751 186.6284,397.66486 C191.822591,397.958497 196.924045,398.303397 202.096799,397.521913 C207.155224,396.757775 211.21902,393.808239 215.915508,391.976104 C236.249246,384.044183 257.612098,388.120722 278.578683,384.83976 C284.074385,383.979602 289.945227,382.475795 294.32203,378.877965 C297.083783,376.607543 300.087708,374.515223 303.089148,372.57189 C305.244928,371.176184 306.928792,369.272808 309.122164,367.949272 C313.919777,365.054251 318.698904,362.156133 323.10522,358.675541 C335.947631,348.531584 349.723466,343.280187 359.450263,329.241665 C383.330677,294.77631 372.099433,243.592994 353.039,209.770668 C343.546453,192.926177 331.335181,177.608258 317.140554,164.590653 C302.836569,151.473 287.96094,140.401825 272.520037,128.577353 C262.372274,120.806344 252.82334,111.252759 247.00003,99.7536723 C243.29056,92.4290042 241.121576,84.3869693 240.064967,76.2710604 C239.221172,69.7899797 238.246115,62.579762 239.406179,56.0926413 C240.249354,51.3772555 242.658801,46.7174687 246.782091,44.2591865 C251.652557,41.3553378 257.825377,42.0253138 263.345467,43.3381631 C267.465029,44.3180379 271.577602,45.6346042 275.077987,48.0117335 C287.04367,56.1378639 289.069432,74.3788351 301.546021,81.7014899 C304.287115,83.3102996 307.39434,84.2815015 309.97761,86.1319113 C314.070144,89.0636371 316.355165,93.8072095 319.123443,98.0054779 C326.067671,108.537234 336.995385,116.388622 349.213026,119.624671 C352.01408,120.366662 355.890228,120.330577 356.791965,117.584388 C357.583101,115.174735 355.291555,112.975089 353.412277,111.266697 C344.331841,103.011868 340.229521,90.2642043 341.149122,77.9907584" id="Fill-1" fill="#FFFFFF" mask="url(#mask-2)"></path>
                </g>
                <g id="Work" transform="translate(175.985646, 274.205962) rotate(32.000000) translate(-175.985646, -274.205962) " fill="#000000" fill-opacity="1">
                    <use filter="url(#filter-4)" xlink:href="#text-3"></use>
                    <use filter="url(#filter-5)" xlink:href="#text-3"></use>
                </g>
            </g>
        </g>
    </g>
</svg>