<?xml version="1.0" encoding="UTF-8"?>
<svg width="416px" height="629px" viewBox="0 0 416 629" version="1.1" xmlns="http://www.w3.org/2000/svg" xmlns:xlink="http://www.w3.org/1999/xlink">
    <!-- Generator: Sketch 53.2 (72643) - https://sketchapp.com -->
    <title>Group</title>
    <desc>Created with Sketch.</desc>
    <g id="nika-fisher" stroke="none" stroke-width="1" fill="none" fill-rule="evenodd">
        <g id="nikafisher.com" transform="translate(-922.000000, -1032.000000)">
            <g id="Group" transform="translate(924.000000, 1034.000000)">
                <g id="Group-14">
                    <g id="Group-7">
                        <path d="M412,155.153887 L412,562.09259 L363.210526,610.040585 L362.546447,609.360086 L317.131579,559.370592 L317.131579,74.8549454 L339.439211,53.3511611 L340.035526,52.6842716 C391.047632,97.6788988 412,155.153887 412,155.153887" id="Fill-1" fill="#FC69EF"></path>
                        <path d="M362.546176,609.360766 L363.210255,610.041266 L348.302361,624.699225 L63.6970974,624.699225 L48.0980184,609.360766 L93.5128868,559.371273 L93.5128868,74.8556259 L71.2052553,53.3518416 C103.324992,24.7708624 147.479466,1.06225973 205.999729,0.000680499504 C264.059203,1.04728874 307.983282,24.4020317 340.035255,52.6835911 L339.438939,53.3518416 L317.131308,74.8556259 L317.131308,559.371273 L362.546176,609.360766 Z" id="Fill-3" fill="#FFF4E4"></path>
                        <path d="M93.5131579,74.8549454 L93.5131579,559.370592 L48.0982895,609.360086 L0,562.09259 L0,155.153887 C0,155.153887 20.7490789,98.2505184 71.2055263,53.3511611 L93.5131579,74.8549454 Z" id="Fill-5" fill="#FC69EF"></path>
                    </g>
                    <path d="M48.0982895,609.654139 L63.6973684,625 L348.302632,625 L363.210526,610.334967 L412,562.363834 L412,155.228758 C412,155.228758 391.047632,97.7246732 340.035526,52.7083333 C307.983553,24.4131264 264.059474,1.04711329 206,0 C147.479737,1.0620915 103.325263,24.7821351 71.2055263,53.3769063 C20.7490789,98.2979303 0,155.228758 0,155.228758 L0,562.363834 L48.0982895,609.654139 Z" id="Stroke-8" stroke="#FFFFFF" stroke-width="4"></path>
                    <polyline id="Stroke-10" stroke="#FFFFFF" stroke-width="4" points="70.8961504 53 93 74.5034392 93 559.011309 48 609"></polyline>
                    <polyline id="Stroke-12" stroke="#FFFFFF" stroke-width="4" points="339.10385 53 317 74.5034392 317 559.011309 362 609"></polyline>
                </g>
            </g>
        </g>
    </g>
</svg>